<svg width="100" height="100" viewBox="0 0 100 100" fill="none" xmlns="http://www.w3.org/2000/svg">
<g filter="url(#filter0_di_1_711)">
<rect x="25" y="10" width="50" height="50" rx="12" fill="url(#paint0_linear_1_711)" shape-rendering="crispEdges"/>
<path d="M50.0001 26.6665C48.9057 26.6665 47.8221 26.8821 46.8111 27.3008C45.8 27.7196 44.8813 28.3335 44.1075 29.1073C42.5447 30.6701 41.6667 32.7897 41.6667 34.9998C41.6667 38.6832 44.0584 41.8082 47.3667 42.9165C47.7834 42.9832 47.9167 42.7248 47.9167 42.4998V41.0915C45.6084 41.5915 45.1167 39.9748 45.1167 39.9748C44.7334 39.0082 44.1917 38.7498 44.1917 38.7498C43.4334 38.2332 44.2501 38.2498 44.2501 38.2498C45.0834 38.3082 45.5251 39.1082 45.5251 39.1082C46.2501 40.3748 47.4751 39.9998 47.9501 39.7998C48.0251 39.2582 48.2417 38.8915 48.4751 38.6832C46.6251 38.4748 44.6834 37.7582 44.6834 34.5832C44.6834 33.6582 45.0001 32.9165 45.5417 32.3248C45.4584 32.1165 45.1667 31.2498 45.6251 30.1248C45.6251 30.1248 46.3251 29.8998 47.9167 30.9748C48.5751 30.7915 49.2917 30.6998 50.0001 30.6998C50.7084 30.6998 51.4251 30.7915 52.0834 30.9748C53.6751 29.8998 54.3751 30.1248 54.3751 30.1248C54.8334 31.2498 54.5417 32.1165 54.4584 32.3248C55.0001 32.9165 55.3167 33.6582 55.3167 34.5832C55.3167 37.7665 53.3667 38.4665 51.5084 38.6748C51.8084 38.9332 52.0834 39.4415 52.0834 40.2165V42.4998C52.0834 42.7248 52.2167 42.9915 52.6417 42.9165C55.9501 41.7998 58.3334 38.6832 58.3334 34.9998C58.3334 33.9055 58.1179 32.8219 57.6991 31.8108C57.2803 30.7998 56.6665 29.8811 55.8926 29.1073C55.1188 28.3335 54.2002 27.7196 53.1891 27.3008C52.1781 26.8821 51.0944 26.6665 50.0001 26.6665Z" fill="#8C8C8C"/>
</g>
<defs>
<filter id="filter0_di_1_711" x="0" y="0" width="100" height="100" filterUnits="userSpaceOnUse" color-interpolation-filters="sRGB">
<feFlood flood-opacity="0" result="BackgroundImageFix"/>
<feColorMatrix in="SourceAlpha" type="matrix" values="0 0 0 0 0 0 0 0 0 0 0 0 0 0 0 0 0 0 127 0" result="hardAlpha"/>
<feOffset dy="15"/>
<feGaussianBlur stdDeviation="12.5"/>
<feComposite in2="hardAlpha" operator="out"/>
<feColorMatrix type="matrix" values="0 0 0 0 0 0 0 0 0 0 0 0 0 0 0 0 0 0 0.5 0"/>
<feBlend mode="normal" in2="BackgroundImageFix" result="effect1_dropShadow_1_711"/>
<feBlend mode="normal" in="SourceGraphic" in2="effect1_dropShadow_1_711" result="shape"/>
<feColorMatrix in="SourceAlpha" type="matrix" values="0 0 0 0 0 0 0 0 0 0 0 0 0 0 0 0 0 0 127 0" result="hardAlpha"/>
<feOffset dy="2"/>
<feGaussianBlur stdDeviation="1"/>
<feComposite in2="hardAlpha" operator="arithmetic" k2="-1" k3="1"/>
<feColorMatrix type="matrix" values="0 0 0 0 1 0 0 0 0 1 0 0 0 0 1 0 0 0 1 0"/>
<feBlend mode="normal" in2="shape" result="effect2_innerShadow_1_711"/>
</filter>
<linearGradient id="paint0_linear_1_711" x1="50" y1="10" x2="50" y2="60" gradientUnits="userSpaceOnUse">
<stop stop-color="#343236"/>
<stop offset="1" stop-color="#38343F"/>
</linearGradient>
</defs>
</svg>
